<svg width="1020" height="158" viewBox="0 0 1020 158" fill="none" xmlns="http://www.w3.org/2000/svg">
<path d="M0.0085234 155V9.54545H99.2983V38.0966H35.1648V67.9261H92.9773V96.5483H35.1648V155H0.0085234ZM97.0007 155V45.9091H131.731V155H97.0007ZM114.401 33.196C109.524 33.196 105.334 31.5862 101.83 28.3665C98.3265 25.0994 96.5746 21.1695 96.5746 16.5767C96.5746 12.0312 98.3265 8.14867 101.83 4.92898C105.334 1.66193 109.524 0.0284004 114.401 0.0284004C119.326 0.0284004 123.516 1.66193 126.972 4.92898C130.476 8.14867 132.228 12.0312 132.228 16.5767C132.228 21.1695 130.476 25.0994 126.972 28.3665C123.516 31.5862 119.326 33.196 114.401 33.196ZM163.382 45.9091L181.351 81.8466L199.959 45.9091H234.973L204.504 100.455L236.109 155H201.379L181.351 118.778L161.82 155H126.592L158.268 100.455L128.155 45.9091H163.382ZM277.917 157.06C266.506 157.06 256.657 154.811 248.371 150.312C240.133 145.767 233.788 139.304 229.337 130.923C224.934 122.495 222.732 112.481 222.732 100.881C222.732 89.6117 224.958 79.7633 229.408 71.3352C233.859 62.8598 240.133 56.2784 248.229 51.5909C256.326 46.8561 265.867 44.4886 276.852 44.4886C284.617 44.4886 291.719 45.696 298.158 48.1108C304.598 50.5256 310.161 54.1004 314.849 58.8352C319.536 63.5701 323.182 69.4176 325.786 76.3778C328.39 83.2907 329.692 91.2216 329.692 100.17V108.835H234.877V88.6648H297.377C297.33 84.9716 296.454 81.6809 294.749 78.7926C293.045 75.9044 290.701 73.6553 287.718 72.0455C284.782 70.3883 281.397 69.5597 277.562 69.5597C273.679 69.5597 270.199 70.4356 267.121 72.1875C264.044 73.892 261.605 76.2358 259.806 79.2188C258.007 82.1544 257.06 85.4924 256.965 89.233V109.759C256.965 114.209 257.841 118.116 259.593 121.477C261.345 124.792 263.831 127.372 267.05 129.219C270.27 131.065 274.105 131.989 278.556 131.989C281.634 131.989 284.427 131.562 286.937 130.71C289.446 129.858 291.601 128.603 293.4 126.946C295.199 125.289 296.549 123.253 297.448 120.838L329.337 121.761C328.012 128.911 325.1 135.137 320.602 140.44C316.151 145.696 310.303 149.792 303.059 152.727C295.815 155.616 287.434 157.06 277.917 157.06ZM367.274 156.562C359.225 156.562 351.91 154.479 345.328 150.312C338.747 146.146 333.491 139.896 329.561 131.562C325.631 123.229 323.666 112.884 323.666 100.526C323.666 87.6941 325.702 77.1354 329.774 68.8494C333.846 60.5634 339.173 54.4318 345.754 50.4545C352.383 46.4773 359.509 44.4886 367.132 44.4886C372.861 44.4886 377.762 45.483 381.834 47.4716C385.906 49.4129 389.268 51.9223 391.919 55C394.571 58.0777 396.583 61.2737 397.956 64.5881H398.666V9.54545H433.396V155H399.021V137.315H397.956C396.488 140.677 394.405 143.826 391.706 146.761C389.007 149.697 385.622 152.064 381.55 153.864C377.525 155.663 372.767 156.562 367.274 156.562ZM379.348 129.503C383.562 129.503 387.161 128.319 390.143 125.952C393.126 123.537 395.423 120.152 397.033 115.795C398.643 111.439 399.447 106.326 399.447 100.455C399.447 94.4886 398.643 89.3513 397.033 85.0426C395.47 80.7339 393.174 77.4195 390.143 75.0994C387.161 72.7794 383.562 71.6193 379.348 71.6193C375.039 71.6193 371.393 72.803 368.411 75.1705C365.428 77.5379 363.155 80.8759 361.592 85.1847C360.077 89.4934 359.32 94.5833 359.32 100.455C359.32 106.326 360.101 111.439 361.663 115.795C363.226 120.152 365.475 123.537 368.411 125.952C371.393 128.319 375.039 129.503 379.348 129.503ZM435.36 9.54545H478.897L515.829 99.6023H517.533L554.465 9.54545H598.002V155H563.769V65.6534H562.562L527.619 154.077H505.744L470.8 65.1562H469.593V155H435.36V9.54545ZM630.683 156.847C623.723 156.847 617.544 155.687 612.146 153.366C606.796 150.999 602.558 147.448 599.433 142.713C596.356 137.931 594.817 131.941 594.817 124.744C594.817 118.684 595.882 113.57 598.013 109.403C600.143 105.237 603.079 101.851 606.82 99.2472C610.56 96.643 614.869 94.678 619.746 93.3523C624.623 91.9792 629.831 91.0559 635.371 90.5824C641.573 90.0142 646.569 89.4223 650.357 88.8068C654.144 88.1439 656.891 87.2206 658.595 86.0369C660.347 84.8059 661.223 83.0776 661.223 80.8523V80.4972C661.223 76.8513 659.968 74.0341 657.459 72.0455C654.949 70.0568 651.564 69.0625 647.303 69.0625C642.71 69.0625 639.017 70.0568 636.223 72.0455C633.429 74.0341 631.654 76.7803 630.896 80.2841L598.865 79.1477C599.812 72.5189 602.25 66.6004 606.18 61.392C610.158 56.1364 615.603 52.017 622.516 49.0341C629.476 46.0038 637.833 44.4886 647.587 44.4886C654.547 44.4886 660.963 45.3172 666.834 46.9744C672.705 48.5843 677.819 50.9517 682.175 54.0767C686.531 57.1544 689.893 60.9422 692.26 65.4403C694.675 69.9384 695.882 75.0758 695.882 80.8523V155H663.212V139.801H662.359C660.418 143.494 657.932 146.619 654.902 149.176C651.919 151.733 648.392 153.651 644.32 154.929C640.295 156.207 635.75 156.847 630.683 156.847ZM641.408 134.119C645.148 134.119 648.51 133.362 651.493 131.847C654.523 130.331 656.938 128.248 658.737 125.597C660.536 122.898 661.436 119.773 661.436 116.222V105.852C660.442 106.373 659.234 106.847 657.814 107.273C656.441 107.699 654.926 108.101 653.268 108.48C651.611 108.859 649.907 109.19 648.155 109.474C646.403 109.759 644.722 110.019 643.112 110.256C639.845 110.777 637.052 111.581 634.732 112.67C632.459 113.759 630.707 115.18 629.476 116.932C628.292 118.636 627.7 120.672 627.7 123.04C627.7 126.638 628.979 129.384 631.536 131.278C634.14 133.172 637.43 134.119 641.408 134.119ZM697.118 155V45.9091H730.854V65.7955H731.99C733.979 58.5985 737.222 53.2481 741.72 49.7443C746.218 46.1932 751.45 44.4176 757.416 44.4176C759.026 44.4176 760.683 44.536 762.388 44.7727C764.092 44.9621 765.679 45.2699 767.146 45.696V75.8807C765.489 75.3125 763.311 74.8627 760.612 74.5312C757.961 74.1998 755.593 74.0341 753.51 74.0341C749.391 74.0341 745.674 74.9574 742.359 76.804C739.092 78.6032 736.512 81.1364 734.618 84.4034C732.771 87.6231 731.848 91.411 731.848 95.767V155H697.118ZM792.619 126.378L792.761 84.9716H797.59L828.272 45.9091H867.619L822.022 101.875H812.86L792.619 126.378ZM761.298 155V9.54545H796.028V155H761.298ZM829.053 155L800.502 109.688L823.371 85.0426L869.181 155H829.053ZM906.55 157.06C895.139 157.06 885.29 154.811 877.004 150.312C868.766 145.767 862.421 139.304 857.97 130.923C853.567 122.495 851.365 112.481 851.365 100.881C851.365 89.6117 853.59 79.7633 858.041 71.3352C862.492 62.8598 868.766 56.2784 876.862 51.5909C884.959 46.8561 894.5 44.4886 905.484 44.4886C913.25 44.4886 920.352 45.696 926.791 48.1108C933.231 50.5256 938.794 54.1004 943.482 58.8352C948.169 63.5701 951.815 69.4176 954.419 76.3778C957.023 83.2907 958.325 91.2216 958.325 100.17V108.835H863.51V88.6648H926.01C925.963 84.9716 925.087 81.6809 923.382 78.7926C921.678 75.9044 919.334 73.6553 916.351 72.0455C913.415 70.3883 910.03 69.5597 906.195 69.5597C902.312 69.5597 898.832 70.4356 895.754 72.1875C892.677 73.892 890.238 76.2358 888.439 79.2188C886.64 82.1544 885.693 85.4924 885.598 89.233V109.759C885.598 114.209 886.474 118.116 888.226 121.477C889.978 124.792 892.464 127.372 895.683 129.219C898.903 131.065 902.738 131.989 907.189 131.989C910.267 131.989 913.06 131.562 915.57 130.71C918.079 129.858 920.233 128.603 922.033 126.946C923.832 125.289 925.181 123.253 926.081 120.838L957.97 121.761C956.644 128.911 953.732 135.137 949.234 140.44C944.784 145.696 938.936 149.792 931.692 152.727C924.447 155.616 916.067 157.06 906.55 157.06ZM1017.64 45.9091V71.4773H948.819V45.9091H1017.64ZM963.237 19.7727H997.967V120.696C997.967 122.827 998.298 124.555 998.961 125.881C999.671 127.159 1000.69 128.082 1002.01 128.651C1003.34 129.171 1004.93 129.432 1006.77 129.432C1008.1 129.432 1009.5 129.313 1010.96 129.077C1012.48 128.793 1013.62 128.556 1014.37 128.366L1019.63 153.438C1017.97 153.911 1015.63 154.503 1012.6 155.213C1009.61 155.923 1006.04 156.373 1001.87 156.562C993.729 156.941 986.745 155.994 980.921 153.722C975.145 151.402 970.718 147.803 967.64 142.926C964.61 138.049 963.142 131.918 963.237 124.531V19.7727Z" fill="white"/>
</svg>
